<svg width="27" height="28" viewBox="0 0 27 28" fill="none" xmlns="http://www.w3.org/2000/svg">
<g id="PhoneCall">
<path id="Vector" opacity="0.2" d="M9.75586 13.7328C10.6241 15.5258 12.0739 16.9719 13.8691 17.8356C14.0016 17.8983 14.148 17.9254 14.2941 17.9143C14.4402 17.9032 14.5809 17.8543 14.7023 17.7723L17.3391 16.0109C17.4556 15.9319 17.5902 15.8837 17.7303 15.8708C17.8705 15.8579 18.0117 15.8807 18.1406 15.9371L23.0766 18.057C23.2453 18.1272 23.3862 18.251 23.4777 18.4091C23.5692 18.5673 23.6061 18.7512 23.5828 18.9324C23.4264 20.1535 22.8304 21.2757 21.9063 22.0891C20.9823 22.9025 19.7935 23.3513 18.5625 23.3516C14.7583 23.3516 11.1099 21.8404 8.41994 19.1504C5.72996 16.4604 4.21875 12.812 4.21875 9.00782C4.21903 7.77678 4.66785 6.58803 5.48124 5.66399C6.29463 4.73995 7.41684 4.14395 8.63789 3.9875C8.81913 3.96422 9.00299 4.00117 9.16117 4.09264C9.31935 4.18412 9.44307 4.32506 9.51328 4.49375L11.6332 9.44024C11.6883 9.56717 11.7114 9.70571 11.7004 9.84365C11.6893 9.98159 11.6445 10.1147 11.5699 10.2313L9.80859 12.9102C9.73018 13.0313 9.68416 13.1706 9.67492 13.3146C9.66569 13.4586 9.69356 13.6026 9.75586 13.7328Z" fill="#FDFDFD"/>
<path id="Vector_2" d="M9.75586 13.7328C10.6241 15.5258 12.0739 16.9719 13.8691 17.8355C14.0016 17.8983 14.148 17.9254 14.2941 17.9143C14.4402 17.9032 14.5809 17.8543 14.7023 17.7723L17.3391 16.0109C17.4556 15.9319 17.5902 15.8837 17.7303 15.8708C17.8705 15.8579 18.0117 15.8807 18.1406 15.9371L23.0766 18.057C23.2453 18.1272 23.3862 18.251 23.4777 18.4091C23.5692 18.5673 23.6061 18.7512 23.5828 18.9324C23.4264 20.1535 22.8304 21.2757 21.9063 22.0891C20.9823 22.9025 19.7935 23.3513 18.5625 23.3516C14.7583 23.3516 11.1099 21.8404 8.41994 19.1504C5.72996 16.4604 4.21875 12.812 4.21875 9.00782C4.21903 7.77678 4.66785 6.58803 5.48124 5.66399C6.29463 4.73995 7.41684 4.14395 8.63789 3.9875C8.81913 3.96422 9.00299 4.00117 9.16117 4.09264C9.31935 4.18412 9.44307 4.32506 9.51328 4.49375L11.6332 9.44024C11.6883 9.56717 11.7114 9.70571 11.7004 9.84365C11.6893 9.98159 11.6445 10.1147 11.5699 10.2313L9.80859 12.9102C9.73018 13.0313 9.68416 13.1706 9.67492 13.3146C9.66569 13.4586 9.69356 13.6026 9.75586 13.7328Z" stroke="#FDFDFD" stroke-width="1.6875" stroke-linecap="round" stroke-linejoin="round"/>
<path id="Vector_3" d="M16.8115 4.78906C18.2427 5.17315 19.5476 5.92691 20.5954 6.9747C21.6432 8.02249 22.397 9.32744 22.7811 10.7586" stroke="#FDFDFD" stroke-width="1.6875" stroke-linecap="round" stroke-linejoin="round"/>
<path id="Vector_4" d="M15.9365 8.0481C16.7973 8.2767 17.5823 8.72877 18.212 9.35852C18.8418 9.98826 19.2939 10.7733 19.5225 11.634" stroke="#FDFDFD" stroke-width="1.6875" stroke-linecap="round" stroke-linejoin="round"/>
</g>
</svg>
