<svg width="27" height="27" viewBox="0 0 27 27" fill="none" xmlns="http://www.w3.org/2000/svg">
<g id="PhoneCall">
<path id="Vector" opacity="0.2" d="M9.75586 13.1625C10.6241 14.9555 12.0739 16.4016 13.8691 17.2652C14.0016 17.3279 14.148 17.3551 14.2941 17.344C14.4402 17.3329 14.5809 17.2839 14.7023 17.2019L17.3391 15.4406C17.4556 15.3616 17.5902 15.3134 17.7303 15.3005C17.8705 15.2876 18.0117 15.3104 18.1406 15.3668L23.0766 17.4867C23.2453 17.5569 23.3862 17.6806 23.4777 17.8388C23.5692 17.997 23.6061 18.1809 23.5828 18.3621C23.4264 19.5831 22.8304 20.7054 21.9063 21.5187C20.9823 22.3321 19.7935 22.781 18.5625 22.7812C14.7583 22.7812 11.1099 21.27 8.41994 18.58C5.72996 15.8901 4.21875 12.2417 4.21875 8.43748C4.21903 7.20645 4.66785 6.01769 5.48124 5.09365C6.29463 4.16961 7.41684 3.57361 8.63789 3.41717C8.81913 3.39389 9.00299 3.43083 9.16117 3.52231C9.31935 3.61378 9.44307 3.75472 9.51328 3.92342L11.6332 8.8699C11.6883 8.99683 11.7114 9.13537 11.7004 9.27331C11.6893 9.41126 11.6445 9.54437 11.5699 9.66092L9.80859 12.3398C9.73018 12.461 9.68416 12.6002 9.67492 12.7443C9.66569 12.8883 9.69356 13.0323 9.75586 13.1625Z" fill="#388260"/>
<path id="Vector_2" d="M9.75586 13.1625C10.6241 14.9555 12.0739 16.4016 13.8691 17.2652C14.0016 17.3279 14.148 17.3551 14.2941 17.344C14.4402 17.3329 14.5809 17.2839 14.7023 17.2019L17.3391 15.4406C17.4556 15.3616 17.5902 15.3134 17.7303 15.3005C17.8705 15.2876 18.0117 15.3104 18.1406 15.3668L23.0766 17.4867C23.2453 17.5569 23.3862 17.6806 23.4777 17.8388C23.5692 17.997 23.6061 18.1809 23.5828 18.3621C23.4264 19.5831 22.8304 20.7054 21.9063 21.5187C20.9823 22.3321 19.7935 22.781 18.5625 22.7812C14.7583 22.7812 11.1099 21.27 8.41994 18.58C5.72996 15.8901 4.21875 12.2417 4.21875 8.43748C4.21903 7.20645 4.66785 6.01769 5.48124 5.09365C6.29463 4.16961 7.41684 3.57361 8.63789 3.41717C8.81913 3.39389 9.00299 3.43083 9.16117 3.52231C9.31935 3.61378 9.44307 3.75472 9.51328 3.92342L11.6332 8.8699C11.6883 8.99683 11.7114 9.13537 11.7004 9.27331C11.6893 9.41126 11.6445 9.54437 11.5699 9.66092L9.80859 12.3398C9.73018 12.461 9.68416 12.6002 9.67492 12.7443C9.66569 12.8883 9.69356 13.0323 9.75586 13.1625Z" stroke="#388260" stroke-width="1.6875" stroke-linecap="round" stroke-linejoin="round"/>
<path id="Vector_3" d="M16.8115 4.21875C18.2427 4.60284 19.5476 5.3566 20.5954 6.40439C21.6432 7.45218 22.397 8.75713 22.7811 10.1883" stroke="#388260" stroke-width="1.6875" stroke-linecap="round" stroke-linejoin="round"/>
<path id="Vector_4" d="M15.9365 7.47772C16.7973 7.70632 17.5823 8.1584 18.212 8.78814C18.8418 9.41788 19.2939 10.2029 19.5225 11.0637" stroke="#388260" stroke-width="1.6875" stroke-linecap="round" stroke-linejoin="round"/>
</g>
</svg>
